<?xml version="1.0" encoding="UTF-8"?>
<svg id="Layer_2" data-name="Layer 2" xmlns="http://www.w3.org/2000/svg" viewBox="0 0 172.19 93.52">
  <defs>
    <style>
      .cls-1 {
        letter-spacing: .1em;
      }

      .cls-2 {
        letter-spacing: 0em;
      }

      .cls-3, .cls-4 {
        fill: #5a5b5f;
      }

      .cls-5 {
        letter-spacing: -.08em;
      }

      .cls-4 {
        font-family: OverusedGrotesk-Regular, 'Overused Grotesk';
        font-size: 15.31px;
        font-variation-settings: 'wght' 450, 'slnt' 0;
      }

      .cls-6 {
        letter-spacing: .1em;
      }

      .cls-7 {
        letter-spacing: .08em;
      }

      .cls-8 {
        fill: none;
        stroke: #ed1b24;
        stroke-miterlimit: 10;
      }

      .cls-9 {
        fill: #ed1b24;
      }

      .cls-10 {
        letter-spacing: .09em;
      }

      .cls-11 {
        letter-spacing: .09em;
      }

      .cls-12 {
        fill: #286b38;
        font-family: OverusedGrotesk-Bold, 'Overused Grotesk';
        font-size: 28.69px;
        font-variation-settings: 'wght' 710, 'slnt' 0;
        font-weight: 700;
      }
    </style>
  </defs>
  <g id="Layer_1-2" data-name="Layer 1">
    <text class="cls-12" transform="translate(0 71.39)"><tspan x="0" y="0">MIDDLE</tspan><tspan class="cls-5" x="101.35" y="0">P</tspan><tspan class="cls-2" x="116.87" y="0">ARK</tspan></text>
    <text class="cls-4" transform="translate(37.09 89.3)"><tspan class="cls-1" x="0" y="0">P</tspan><tspan class="cls-7" x="10.63" y="0">R</tspan><tspan class="cls-6" x="20.94" y="0">OPE</tspan><tspan class="cls-11" x="53.75" y="0">R</tspan><tspan class="cls-1" x="64.13" y="0">TI</tspan><tspan class="cls-10" x="79.23" y="0">E</tspan><tspan class="cls-1" x="89.08" y="0">S</tspan></text>
    <polygon class="cls-3" points="60.75 39.82 67.77 39.82 67.77 12.59 60.75 17.35 60.75 39.82"/>
    <polygon class="cls-3" points="71.29 39.81 78.18 39.81 78.18 5.42 71.29 10.14 71.29 39.81"/>
    <polygon class="cls-3" points="104.42 12.59 104.42 39.82 111.44 39.82 111.44 17.35 104.42 12.59"/>
    <polygon class="cls-3" points="94.01 39.81 100.9 39.81 100.9 10.15 94.01 5.43 94.01 39.81"/>
    <polygon class="cls-9" points="81.62 3.61 81.62 39.54 90.57 39.54 90.57 3.61 86.09 0 81.62 3.61"/>
    <line class="cls-8" x1="58.08" y1="39.73" x2="114.11" y2="39.73"/>
  </g>
</svg>